<svg width="36" height="40" viewBox="0 0 36 40" fill="none" xmlns="http://www.w3.org/2000/svg">
<path d="M30.9028 2.34375C30.0493 2.34375 29.2491 2.57414 28.559 2.97437V1.17188C28.559 0.524687 28.0343 0 27.3871 0H8.63715C7.98988 0 7.4652 0.524687 7.4652 1.17188V2.98867C6.76965 2.57953 5.96035 2.34375 5.09668 2.34375C2.51199 2.34375 0.40918 4.44656 0.40918 7.03125C0.40918 9.00273 0.993398 10.9077 2.09863 12.5402C3.9802 15.3193 6.30043 16.0405 8.22035 16.8084C9.32738 19.5653 11.5661 21.7502 14.3586 22.7846L13.4945 28.2812H13.3246C11.3861 28.2812 9.80902 29.8584 9.80902 31.7969V37.6562H8.63715C7.98996 37.6562 7.46527 38.1809 7.46527 38.8281C7.46527 39.4753 7.98996 40 8.63715 40H27.3871C28.0343 40 28.559 39.4753 28.559 38.8281C28.559 38.1809 28.0343 37.6562 27.3871 37.6562H26.2153V31.7969C26.2153 29.8584 24.6382 28.2812 22.6996 28.2812H22.5298L21.6657 22.7847C24.4624 21.7487 26.7036 19.5591 27.8089 16.7966C29.6226 16.0711 32 15.3478 33.9009 12.5402C35.0061 10.9077 35.5904 9.00266 35.5904 7.03125C35.5903 4.44656 33.4875 2.34375 30.9028 2.34375ZM7.45652 13.9787C4.59918 12.8357 2.75293 10.1087 2.75293 7.03125C2.75293 5.73891 3.80434 4.6875 5.09668 4.6875C6.38902 4.6875 7.44043 5.73891 7.44043 7.03125C7.44043 7.11367 7.4491 7.19398 7.46527 7.27156V12.8906C7.46527 13.2673 7.48551 13.6392 7.52426 14.0058L7.45652 13.9787ZM23.8715 37.6562H12.1528V35.3125H23.8715V37.6562ZM22.6996 30.625C23.3458 30.625 23.8715 31.1507 23.8715 31.7969V32.9688H12.1528V31.7969C12.1528 31.1507 12.6785 30.625 13.3246 30.625C13.9604 30.625 21.2086 30.625 22.6996 30.625ZM15.867 28.2812L16.6425 23.3487C17.0909 23.4071 17.548 23.4375 18.0121 23.4375C18.4763 23.4375 18.9334 23.407 19.3818 23.3487L20.1573 28.2812H15.867ZM26.2153 12.8906C26.2153 17.4138 22.5354 21.0938 18.0121 21.0938C13.4889 21.0938 9.80902 17.4138 9.80902 12.8906V7.03125H26.2153V12.8906ZM26.2153 4.6875H9.80902V2.34375H26.2153V4.6875ZM28.5429 13.9787L28.5012 13.9953C28.5392 13.6322 28.5589 13.2637 28.5589 12.8906V7.03125C28.559 5.73891 29.6104 4.6875 30.9028 4.6875C32.1951 4.6875 33.2465 5.73891 33.2465 7.03125C33.2465 10.1087 31.4003 12.8358 28.5429 13.9787Z" fill="#3A3A3A"/>
</svg>
