<svg width="36" height="40" viewBox="0 0 36 40" fill="none" xmlns="http://www.w3.org/2000/svg">
<path d="M34.462 15.9752C34.1991 7.12165 26.9158 0 17.9996 0C9.08344 0 1.80007 7.12165 1.53709 15.9752L0.352539 17.1598V25.1932L1.52901 26.3696V31.8431C1.52901 35.0435 4.13262 37.6471 7.33293 37.6471H8.79019C9.27583 39.0164 10.5835 40 12.1172 40H14.4702C16.0049 40 17.3133 39.015 17.7982 37.6442C17.8654 37.6454 17.9328 37.6471 17.9996 37.6471C23.681 37.6471 28.4347 33.5987 29.5278 28.2353H32.6045L35.6467 25.1932V17.1598L34.462 15.9752ZM17.9996 2.35294C24.9824 2.35294 30.7965 7.44933 31.9201 14.1176H29.5278C28.4347 8.7542 23.681 4.70588 17.9996 4.70588C12.3182 4.70588 7.56446 8.7542 6.47144 14.1176H4.07913C5.20266 7.44933 11.0168 2.35294 17.9996 2.35294ZM27.1136 14.1176C23.3105 14.1063 20.6242 14.3379 18.4095 11.1004L17.334 9.52839L16.4098 11.1938C15.0631 13.6204 13.2496 14.1176 10.9408 14.1176H8.88564C9.93309 10.0629 13.6221 7.05882 17.9996 7.05882C22.3771 7.05882 26.0661 10.0629 27.1136 14.1176ZM6.23489 25.8824H4.36925L2.70548 24.2186V18.1344L4.36925 16.4706H6.23489V25.8824ZM3.88195 31.8431V28.2353H6.46917C6.91207 30.4294 7.97176 32.4435 9.54164 34.0611C9.21254 34.4127 8.95442 34.8311 8.79019 35.2941H7.33293C5.43003 35.2941 3.88195 33.746 3.88195 31.8431ZM14.4702 37.6471H12.1172C11.4685 37.6471 10.9408 37.1194 10.9408 36.4706C10.9408 35.8219 11.4685 35.2941 12.1172 35.2941H14.4702C15.1189 35.2941 15.6467 35.8219 15.6467 36.4706C15.6467 37.1194 15.1189 37.6471 14.4702 37.6471ZM27.4114 25.8824C27.4114 31.072 23.1892 35.2941 17.9996 35.2941C17.9321 35.2941 17.8641 35.2928 17.7962 35.2912C17.3098 33.9234 16.0028 32.9412 14.4702 32.9412C12.0545 32.9465 12.093 32.9291 11.7919 32.9568C9.7494 31.1665 8.58783 28.6166 8.58783 25.8824V16.4706H10.9408C13.0229 16.4706 15.5586 16.1273 17.5214 13.7384C20.1112 16.4524 23.2761 16.4706 26.1171 16.4706H27.4114V25.8824ZM33.2937 24.2186L31.63 25.8824H29.7643V16.4706H31.63L33.2937 18.1344V24.2186Z" fill="#3A3A3A"/>
</svg>
